<svg width="30" height="31" viewBox="0 0 30 31" fill="none" xmlns="http://www.w3.org/2000/svg">
<path fill-rule="evenodd" clip-rule="evenodd" d="M3.75 8.55371C3.75 5.27219 3.78514 4.17871 8.125 4.17871C12.4649 4.17871 12.5 5.27219 12.5 8.55371C12.5 11.8352 12.5138 12.9287 8.125 12.9287C3.73616 12.9287 3.75 11.8352 3.75 8.55371Z" stroke="#3A3A55" stroke-opacity="0.8" stroke-width="1.5" stroke-linecap="round" stroke-linejoin="round"/>
<path fill-rule="evenodd" clip-rule="evenodd" d="M17.5 8.55371C17.5 5.27219 17.5351 4.17871 21.875 4.17871C26.2149 4.17871 26.25 5.27219 26.25 8.55371C26.25 11.8352 26.2638 12.9287 21.875 12.9287C17.4862 12.9287 17.5 11.8352 17.5 8.55371Z" stroke="#3A3A55" stroke-opacity="0.8" stroke-width="1.5" stroke-linecap="round" stroke-linejoin="round"/>
<path fill-rule="evenodd" clip-rule="evenodd" d="M3.75 22.3037C3.75 19.0222 3.78514 17.9287 8.125 17.9287C12.4649 17.9287 12.5 19.0222 12.5 22.3037C12.5 25.5852 12.5138 26.6787 8.125 26.6787C3.73616 26.6787 3.75 25.5852 3.75 22.3037Z" stroke="#3A3A55" stroke-opacity="0.8" stroke-width="1.5" stroke-linecap="round" stroke-linejoin="round"/>
<path fill-rule="evenodd" clip-rule="evenodd" d="M17.5 22.3037C17.5 19.0222 17.5351 17.9287 21.875 17.9287C26.2149 17.9287 26.25 19.0222 26.25 22.3037C26.25 25.5852 26.2638 26.6787 21.875 26.6787C17.4862 26.6787 17.5 25.5852 17.5 22.3037Z" stroke="#3A3A55" stroke-opacity="0.8" stroke-width="1.5" stroke-linecap="round" stroke-linejoin="round"/>
</svg>
