<svg width="26" height="28" viewBox="0 0 26 28" fill="none" xmlns="http://www.w3.org/2000/svg">
<path d="M9.44652 25.393V21.5595C9.4465 20.5845 10.2414 19.7922 11.2263 19.7857H14.8339C15.8234 19.7857 16.6256 20.5799 16.6256 21.5595V21.5595V25.4049C16.6254 26.2327 17.2928 26.9093 18.1288 26.9287H20.5339C22.9314 26.9287 24.875 25.0046 24.875 22.631V22.631V11.726C24.8622 10.7922 24.4193 9.9154 23.6725 9.345L15.4472 2.78534C14.0062 1.64317 11.9578 1.64317 10.5168 2.78534L2.32753 9.35691C1.57782 9.92499 1.13423 10.8033 1.125 11.7379V22.631C1.125 25.0046 3.06859 26.9287 5.46614 26.9287H7.8712C8.72794 26.9287 9.42247 26.2411 9.42247 25.393V25.393" stroke="#8C84E2" stroke-width="2" stroke-linecap="round" stroke-linejoin="round"/>
</svg>
