<svg width="80" height="80" viewBox="0 0 80 80" fill="none" xmlns="http://www.w3.org/2000/svg">
<path fill-rule="evenodd" clip-rule="evenodd" d="M46.3335 23.4401C48.4377 24.2776 49.0815 27.1943 49.9419 28.1318C50.8023 29.0693 52.0335 29.3881 52.7148 29.3881C56.3356 29.3881 59.271 32.3235 59.271 35.9422V48.0151C59.271 52.8693 55.3335 56.8068 50.4794 56.8068H29.521C24.6648 56.8068 20.7294 52.8693 20.7294 48.0151V35.9422C20.7294 32.3235 23.6648 29.3881 27.2856 29.3881C27.9648 29.3881 29.196 29.0693 30.0585 28.1318C30.919 27.1943 31.5606 24.2776 33.6648 23.4401C35.771 22.6026 44.2294 22.6026 46.3335 23.4401Z" stroke="white" stroke-opacity="0.8" stroke-width="1.5" stroke-linecap="round" stroke-linejoin="round"/>
<path d="M51.4489 34.7917H51.4677" stroke="white" stroke-opacity="0.8" stroke-width="2" stroke-linecap="round" stroke-linejoin="round"/>
<path fill-rule="evenodd" clip-rule="evenodd" d="M46.6225 42.35C46.6225 38.6916 43.658 35.7271 39.9996 35.7271C36.3413 35.7271 33.3767 38.6916 33.3767 42.35C33.3767 46.0083 36.3413 48.9729 39.9996 48.9729C43.658 48.9729 46.6225 46.0083 46.6225 42.35Z" stroke="white" stroke-opacity="0.8" stroke-width="1.5" stroke-linecap="round" stroke-linejoin="round"/>
<circle cx="40" cy="40" r="39.25" stroke="white" stroke-opacity="0.8" stroke-width="1.5"/>
</svg>
