<svg width="38" height="39" viewBox="0 0 38 39" fill="none" xmlns="http://www.w3.org/2000/svg">
<path d="M23.8697 1.00506L28.1097 8.29918L20.7658 12.5104M33.2632 17.6142C33.7703 20.773 33.176 24.009 31.5788 26.7865C29.9816 29.564 27.4772 31.7164 24.4804 32.8874C21.4835 34.0584 18.1739 34.1777 15.0995 33.2256C12.025 32.2735 9.37015 30.3071 7.57438 27.652C5.77862 24.9968 4.94967 21.8121 5.22479 18.6252C5.4999 15.4382 6.86258 12.4402 9.08721 10.1274C11.3118 7.81462 14.265 6.32579 17.4577 5.90742C20.6505 5.48905 23.8914 6.16623 26.6438 7.82684" stroke="#3A3A55" stroke-width="2" stroke-linecap="round" stroke-linejoin="round"/>
<path d="M14.7556 16.1624H15.7751V24.5647H14.4568V18.2073H12.9568V17.3049C13.4607 17.2502 13.8435 17.1311 14.1052 16.9475C14.3708 16.76 14.5876 16.4983 14.7556 16.1624ZM21.0544 18.9866C21.8943 18.9866 22.5837 19.2522 23.1228 19.7834C23.6619 20.3147 23.9314 20.9885 23.9314 21.8049C23.9314 22.6526 23.656 23.344 23.1052 23.8792C22.5544 24.4143 21.8298 24.6819 20.9314 24.6819C20.5486 24.6819 20.1853 24.637 19.8416 24.5471C19.4978 24.4534 19.2126 24.344 18.9861 24.219C18.7634 24.0901 18.5701 23.9612 18.406 23.8323C18.2419 23.7034 18.1248 23.5959 18.0544 23.51L17.9314 23.3635L18.7751 22.5256C18.7908 22.5491 18.8181 22.5842 18.8572 22.6311C18.8962 22.6741 18.9841 22.7522 19.1208 22.8655C19.2576 22.9749 19.4021 23.0725 19.5544 23.1584C19.7068 23.2405 19.906 23.3167 20.1521 23.387C20.4021 23.4534 20.6619 23.4866 20.9314 23.4866C21.4119 23.4866 21.8123 23.3264 22.1326 23.0061C22.4529 22.6858 22.613 22.2854 22.613 21.8049C22.613 21.3245 22.4529 20.9241 22.1326 20.6038C21.8123 20.2834 21.4119 20.1233 20.9314 20.1233C20.5798 20.1233 20.2634 20.1877 19.9822 20.3167C19.7048 20.4456 19.5134 20.5745 19.408 20.7034L19.2556 20.9026H18.2947L18.5349 16.1624H23.3923V17.3635H19.7361L19.613 19.344C19.9333 19.1057 20.4138 18.9866 21.0544 18.9866Z" fill="#3A3A55"/>
</svg>
