<svg width="38" height="39" viewBox="0 0 38 39" fill="none" xmlns="http://www.w3.org/2000/svg">
<path d="M14.1303 1.00506L9.89034 8.29918L17.2342 12.5104M4.73676 17.6142C4.22972 20.773 4.824 24.009 6.4212 26.7865C8.01841 29.564 10.5228 31.7164 13.5196 32.8874C16.5165 34.0584 19.8261 34.1777 22.9005 33.2256C25.975 32.2735 28.6299 30.3071 30.4256 27.652C32.2214 24.9968 33.0503 21.8121 32.7752 18.6252C32.5001 15.4382 31.1374 12.4402 28.9128 10.1274C26.6882 7.81462 23.735 6.32579 20.5423 5.90742C17.3495 5.48905 14.1086 6.16623 11.3562 7.82684" stroke="#3A3A55" stroke-width="2" stroke-linecap="round" stroke-linejoin="round"/>
<path d="M14.5774 16.1624H15.5969V24.5647H14.2786V18.2073H12.7786V17.3049C13.2825 17.2502 13.6653 17.1311 13.927 16.9475C14.1926 16.76 14.4094 16.4983 14.5774 16.1624ZM20.8762 18.9866C21.7161 18.9866 22.4055 19.2522 22.9446 19.7834C23.4836 20.3147 23.7532 20.9885 23.7532 21.8049C23.7532 22.6526 23.4778 23.344 22.927 23.8792C22.3762 24.4143 21.6516 24.6819 20.7532 24.6819C20.3704 24.6819 20.0071 24.637 19.6633 24.5471C19.3196 24.4534 19.0344 24.344 18.8079 24.219C18.5852 24.0901 18.3918 23.9612 18.2278 23.8323C18.0637 23.7034 17.9465 23.5959 17.8762 23.51L17.7532 23.3635L18.5969 22.5256C18.6125 22.5491 18.6399 22.5842 18.679 22.6311C18.718 22.6741 18.8059 22.7522 18.9426 22.8655C19.0793 22.9749 19.2239 23.0725 19.3762 23.1584C19.5286 23.2405 19.7278 23.3167 19.9739 23.387C20.2239 23.4534 20.4836 23.4866 20.7532 23.4866C21.2336 23.4866 21.634 23.3264 21.9543 23.0061C22.2747 22.6858 22.4348 22.2854 22.4348 21.8049C22.4348 21.3245 22.2747 20.9241 21.9543 20.6038C21.634 20.2834 21.2336 20.1233 20.7532 20.1233C20.4016 20.1233 20.0852 20.1877 19.804 20.3167C19.5266 20.4456 19.3352 20.5745 19.2297 20.7034L19.0774 20.9026H18.1165L18.3567 16.1624H23.2141V17.3635H19.5579L19.4348 19.344C19.7551 19.1057 20.2356 18.9866 20.8762 18.9866Z" fill="#3A3A55"/>
</svg>
