<svg width="25" height="24" viewBox="0 0 25 24" fill="none" xmlns="http://www.w3.org/2000/svg">
<path d="M22.75 7.00659C22.924 7.00659 23.0845 7.06659 23.212 7.16709L23.3125 7.26159L23.338 7.29159C24.2095 8.37168 24.7641 9.67239 24.9403 11.049C25.1165 12.4256 24.9073 13.8241 24.3359 15.0888C23.7646 16.3536 22.8535 17.435 21.7041 18.2127C20.5547 18.9905 19.212 19.4341 17.8255 19.4941L17.5 19.5001H8.49999C8.34839 19.5001 8.19682 19.4956 8.04549 19.4866L10.531 21.9691C10.655 22.0934 10.7315 22.2572 10.7471 22.4321C10.7627 22.607 10.7165 22.7818 10.6165 22.9261L10.531 23.0311C10.4067 23.1551 10.2429 23.2316 10.068 23.2472C9.89311 23.2628 9.71829 23.2166 9.57399 23.1166L9.46899 23.0311L5.71899 19.2811C5.59498 19.1568 5.5185 18.993 5.50288 18.8181C5.48725 18.6432 5.53348 18.4684 5.63349 18.3241L5.71899 18.2191L9.46899 14.4691C9.60128 14.3362 9.77853 14.2577 9.96583 14.249C10.1531 14.2404 10.3369 14.3022 10.4809 14.4223C10.6249 14.5423 10.7186 14.712 10.7438 14.8978C10.7689 15.0836 10.7235 15.2721 10.6165 15.4261L10.531 15.5311L8.07549 17.9851L8.28549 17.9971L8.49999 18.0001H17.5C18.6331 18.0002 19.743 17.6795 20.7014 17.075C21.6597 16.4706 22.4274 15.6071 22.9154 14.5845C23.4035 13.562 23.592 12.4221 23.4592 11.2969C23.3264 10.1716 22.8777 9.10695 22.165 8.22609C22.0769 8.11581 22.0218 7.98292 22.0058 7.8427C21.9899 7.70247 22.0139 7.5606 22.075 7.43338C22.1361 7.30617 22.2318 7.19877 22.3513 7.12354C22.4707 7.04831 22.6089 7.00829 22.75 7.00809V7.00659ZM15.469 0.969093C15.5933 0.84508 15.7571 0.7686 15.932 0.752977C16.1069 0.737353 16.2817 0.783576 16.426 0.883593L16.531 0.969093L20.281 4.71909L20.3665 4.82409C20.4529 4.94934 20.4992 5.09792 20.4992 5.25009C20.4992 5.40227 20.4529 5.55085 20.3665 5.67609L20.281 5.78109L16.531 9.53109L16.426 9.61659C16.3007 9.70303 16.1522 9.74932 16 9.74932C15.8478 9.74932 15.6992 9.70303 15.574 9.61659L15.469 9.53109L15.3835 9.42609C15.2971 9.30085 15.2508 9.15227 15.2508 9.00009C15.2508 8.84792 15.2971 8.69934 15.3835 8.57409L15.469 8.46909L17.9245 6.01509L17.7145 6.00309L17.5 6.00009H8.49999C7.36596 6.00002 6.25513 6.32134 5.29625 6.9268C4.33736 7.53225 3.5697 8.39706 3.08223 9.42098C2.59477 10.4449 2.40746 11.586 2.54201 12.712C2.67657 13.838 3.12748 14.9029 3.84249 15.7831C3.96204 15.9424 4.0134 16.1427 3.98527 16.3399C3.95713 16.5371 3.85182 16.715 3.69249 16.8346C3.6136 16.8938 3.52382 16.9369 3.42828 16.9614C3.33275 16.9859 3.23332 16.9913 3.13568 16.9774C2.93848 16.9492 2.76054 16.8439 2.64099 16.6846C1.77554 15.6029 1.22659 14.3026 1.05504 12.9279C0.883495 11.5532 1.09604 10.1579 1.66911 8.89664C2.24218 7.63539 3.15338 6.5575 4.30166 5.78251C5.44994 5.00753 6.79044 4.56572 8.17449 4.50609L8.49999 4.50009H17.5C17.653 4.50009 17.8045 4.50459 17.9545 4.51359L15.469 2.03109L15.3835 1.92609C15.2835 1.78179 15.2373 1.60698 15.2529 1.4321C15.2685 1.25723 15.345 1.09338 15.469 0.969093Z" fill="#F6F6F6"/>
</svg>
