<svg width="30" height="30" viewBox="0 0 30 30" fill="none" xmlns="http://www.w3.org/2000/svg">
<path fill-rule="evenodd" clip-rule="evenodd" d="M27.3609 19.8695H22.3009C19.9297 19.8695 17.9997 17.9408 17.9984 15.5708C17.9984 13.1983 19.9284 11.2683 22.3009 11.267H27.3609C27.8784 11.267 28.2984 11.687 28.2984 12.2045C28.2984 12.722 27.8784 13.142 27.3609 13.142H22.3009C20.9622 13.1433 19.8734 14.232 19.8734 15.5695C19.8734 16.9058 20.9634 17.9945 22.3009 17.9945H27.3609C27.8784 17.9945 28.2984 18.4145 28.2984 18.932C28.2984 19.4495 27.8784 19.8695 27.3609 19.8695Z" fill="#3A3A55"/>
<path fill-rule="evenodd" clip-rule="evenodd" d="M22.8729 16.4295H22.4829C21.9654 16.4295 21.5454 16.0095 21.5454 15.492C21.5454 14.9745 21.9654 14.5545 22.4829 14.5545H22.8729C23.3904 14.5545 23.8104 14.9745 23.8104 15.492C23.8104 16.0095 23.3904 16.4295 22.8729 16.4295Z" fill="#3A3A55"/>
<mask id="mask0_1:548" style="mask-type:alpha" maskUnits="userSpaceOnUse" x="2" y="3" width="27" height="25">
<path fill-rule="evenodd" clip-rule="evenodd" d="M2.5 3.75H28.2982V27.7161H2.5V3.75Z" fill="white"/>
</mask>
<g mask="url(#mask0_1:548)">
<path fill-rule="evenodd" clip-rule="evenodd" d="M9.99701 5.625C6.89701 5.625 4.37451 8.1475 4.37451 11.2475V20.2188C4.37451 23.3188 6.89701 25.8413 9.99701 25.8413H20.802C23.902 25.8413 26.4233 23.3188 26.4233 20.2188V11.2475C26.4233 8.1475 23.902 5.625 20.802 5.625H9.99701ZM20.802 27.7163H9.99701C5.86326 27.7163 2.49951 24.3525 2.49951 20.2188V11.2475C2.49951 7.1125 5.86326 3.75 9.99701 3.75H20.802C24.9358 3.75 28.2983 7.1125 28.2983 11.2475V20.2188C28.2983 24.3525 24.9358 27.7163 20.802 27.7163Z" fill="#3A3A55"/>
</g>
<path fill-rule="evenodd" clip-rule="evenodd" d="M15.8558 11.2976H9.10706C8.58956 11.2976 8.16956 10.8776 8.16956 10.3601C8.16956 9.84261 8.58956 9.42261 9.10706 9.42261H15.8558C16.3733 9.42261 16.7933 9.84261 16.7933 10.3601C16.7933 10.8776 16.3733 11.2976 15.8558 11.2976Z" fill="#3A3A55"/>
</svg>
